<svg width="79" height="79" fill="none" xmlns="http://www.w3.org/2000/svg"><path d="M78.17 53.648L51.697 7.794a4.6 4.6 0 00-2.808-2.156L28.686.213a6.18 6.18 0 00-2.058-.196 1.57 1.57 0 00-.182-.012H5.648a5.616 5.616 0 00-5.405 4.01 5.65 5.65 0 004.465 7.207l7.553 1.275-4.116 4.112a4.599 4.599 0 00-1.358 3.275v52.944A6.179 6.179 0 0012.96 79h28.7c1.745 0 3.39-.746 4.546-2.005.056.016.112.034.17.05a6.137 6.137 0 004.683-.617l24.854-14.35a6.131 6.131 0 002.875-3.747 6.132 6.132 0 00-.617-4.683zM5.221 8.179A2.53 2.53 0 013.47 7.002a2.528 2.528 0 01-.274-2.092 2.547 2.547 0 012.452-1.82h16.03l-6.736 6.73-9.72-1.64zm14.644 1.085l-.356 1.327-.832-.14 1.188-1.187zm21.794 66.65h-24.38V62.34a1.543 1.543 0 10-3.085 0v13.576h-1.235a3.09 3.09 0 01-3.086-3.086V19.884c0-.413.16-.8.453-1.092l5.67-5.665 2.709.458-3.013 11.217a4.598 4.598 0 00.462 3.515L42.627 74.17c.242.42.529.803.852 1.147a3.084 3.084 0 01-1.82.598zm34.147-18.382a3.066 3.066 0 01-1.438 1.874l-24.854 14.35a3.067 3.067 0 01-2.341.308 3.066 3.066 0 01-1.874-1.438L18.826 26.775a1.534 1.534 0 01-.154-1.172l3.09-11.502 4.62.78a5.25 5.25 0 00.62 1.675A5.212 5.212 0 0030.187 19a5.215 5.215 0 003.98-.524 5.211 5.211 0 002.445-3.185 5.212 5.212 0 00-.524-3.981 5.212 5.212 0 00-3.185-2.445 5.212 5.212 0 00-3.981.524 5.207 5.207 0 00-2.176 2.424l-4.18-.706 1.54-5.734A3.066 3.066 0 0125.543 3.5a3.067 3.067 0 012.342-.307l11.701 3.143c.01.02.02.041.032.061l7.484 12.964a1.542 1.542 0 102.673-1.543L43.8 7.467l4.289 1.152c.397.106.73.362.936.718L75.498 55.19c.412.714.521 1.546.308 2.342zm-45.514-45.12l-.237-.04a2.146 2.146 0 012.05-.525 2.142 2.142 0 011.31 1.006c.29.5.366 1.082.216 1.639a2.146 2.146 0 01-1.006 1.312c-.5.288-1.082.365-1.64.215a2.145 2.145 0 01-.95-.543h.003a1.543 1.543 0 00.254-3.065z" fill="#DD7D5C"/><path d="M16.827 53.364a1.555 1.555 0 00-1.09-.452c-.406 0-.805.166-1.091.452a1.556 1.556 0 00-.453 1.093 1.545 1.545 0 002.634 1.091c.287-.289.452-.685.452-1.091 0-.407-.165-.806-.452-1.093zm36.646-29.038a1.555 1.555 0 00-1.091-.453c-.407 0-.804.166-1.093.453a1.549 1.549 0 000 2.181c.289.289.687.452 1.093.452a1.55 1.55 0 001.09-.452 1.55 1.55 0 00.453-1.09c0-.406-.165-.803-.452-1.091z" fill="#DD7D5C"/></svg>