<svg width="80" height="80" fill="none" xmlns="http://www.w3.org/2000/svg"><path d="M13.333 14.125V6.667A6.675 6.675 0 0120 0h53.333A6.675 6.675 0 0180 6.667V36a6.653 6.653 0 01-5.979 6.598l-5.012 13.01a6.668 6.668 0 01-8.617 3.825L29.093 47.376a19.275 19.275 0 01-1.66 17.114l-.766 1.225v12.952c0 .736-.597 1.333-1.334 1.333h-24A1.333 1.333 0 010 78.667V34.655a17.45 17.45 0 015.108-12.29l8.225-8.24zm0 7.974L9.287 32.604a4 4 0 002.296 5.17l2.313.893A6.67 6.67 0 0113.333 36V22.1zm64 13.901V6.667a4 4 0 00-4-4H20a4 4 0 00-4 4v8.474h.012l-.012.03V36c.01.233.04.463.09.69l12.214-12.214a7.113 7.113 0 0110.267 9.837L33.364 40h39.97a4 4 0 004-4zm-17.081 6.667l9.481 3.65 1.403-3.65H60.252zm1.099 14.277a4 4 0 005.17-2.295l2.25-5.849-15.916-6.133v-.008H30.92l-1.733 1.889 32.164 12.396zM2.667 77.334H24V66.666H2.667v10.666zm0-13.334h21.926l.579-.924A16.627 16.627 0 0025.509 46a1.333 1.333 0 01.175-1.563l10.926-11.92a4.446 4.446 0 00-6.42-6.15L8.943 47.61l-1.886-1.885 4.934-4.933-1.368-.534A6.667 6.667 0 016.8 31.644l4.513-11.719-4.32 4.328a14.766 14.766 0 00-4.326 10.402V64z" fill="#DD7D5C"/><path d="M64.8 18.667a3.467 3.467 0 01-3.467-3.467V8.8A3.467 3.467 0 0164.8 5.333h6.4A3.467 3.467 0 0174.667 8.8v6.4a3.467 3.467 0 01-3.467 3.467h-6.4zM72 15.2v-1.867h-2.667v-2.666H72V8.8a.8.8 0 00-.8-.8h-6.4a.8.8 0 00-.8.8v1.867h2.667v2.666H64V15.2a.8.8 0 00.8.8h6.4a.8.8 0 00.8-.8zm1.334 7.467H68v2.666h5.334v-2.666zm0 8H68v2.666h5.334v-2.666zm-24 0H44v2.666h5.334v-2.666zm15.999-8H60v2.666h5.333v-2.666zm-7.999 0H52v2.666h5.334v-2.666zm-8 0H44v2.666h5.334v-2.666zM24 6.667h-2.667v4H24v-4zm5.334 0h-2.667v4h2.666v-4zm5.333 0H32v4h2.667v-4zm5.333 0h-2.667v4H40v-4zM21.333 69.333h-2.666V72h2.666v-2.667z" fill="#DD7D5C"/></svg>