<svg width="73" height="77" fill="none" xmlns="http://www.w3.org/2000/svg"><path d="M17.852 77c-8.294 0-15.04-6.746-15.04-15.039 0-8.292 6.746-15.038 15.04-15.038 8.293 0 15.039 6.746 15.039 15.038C32.89 70.254 26.145 77 17.85 77zm0-27.67c-6.967 0-12.633 5.666-12.633 12.631 0 6.966 5.666 12.633 12.633 12.633 6.966 0 12.632-5.667 12.632-12.633 0-6.965-5.666-12.632-12.632-12.632z" fill="#DD7D5C"/><path d="M16.05 49.447a1.202 1.202 0 01-1.204-1.203V32.467a1.203 1.203 0 012.406 0v15.776c0 .665-.537 1.204-1.203 1.204zm3.606 0a1.202 1.202 0 01-1.203-1.203V32.467a1.203 1.203 0 112.406 0v15.776c0 .665-.537 1.204-1.203 1.204zm0-45.237a1.202 1.202 0 01-1.203-1.202.602.602 0 10-1.2 0 1.203 1.203 0 11-2.407 0A3.01 3.01 0 0117.852 0a3.011 3.011 0 013.008 3.008c0 .664-.538 1.203-1.204 1.203zM8.819 33.67c-4.638 0-8.413-3.774-8.413-8.412 0-4.638 3.775-8.412 8.413-8.412s8.412 3.774 8.412 8.412a1.203 1.203 0 11-2.407 0 6.012 6.012 0 00-6.005-6.006 6.012 6.012 0 00-6.007 6.006 6.012 6.012 0 006.007 6.006 1.203 1.203 0 010 2.406z" fill="#DD7D5C"/><path d="M8.819 30.08a4.826 4.826 0 01-4.82-4.821 4.826 4.826 0 014.82-4.822 4.827 4.827 0 014.822 4.822 1.203 1.203 0 11-2.407 0 2.418 2.418 0 00-2.415-2.416 2.416 2.416 0 000 4.83 1.203 1.203 0 010 2.406zm18.056 3.61a1.202 1.202 0 110-2.407 6.023 6.023 0 006.016-6.015 6.023 6.023 0 00-6.016-6.016 6.023 6.023 0 00-6.016 6.016 1.202 1.202 0 11-2.406 0c0-4.644 3.78-8.422 8.422-8.422 4.643 0 8.422 3.778 8.422 8.422s-3.78 8.422-8.422 8.422z" fill="#DD7D5C"/><path d="M26.875 30.08a1.202 1.202 0 110-2.406 2.409 2.409 0 002.406-2.406 2.409 2.409 0 00-2.406-2.406 2.409 2.409 0 00-2.406 2.406 1.202 1.202 0 11-2.407 0 4.817 4.817 0 014.813-4.813 4.817 4.817 0 014.813 4.813 4.817 4.817 0 01-4.813 4.812z" fill="#DD7D5C"/><path d="M26.875 30.08H8.82a1.202 1.202 0 110-2.406h18.056a1.203 1.203 0 110 2.406zm0 3.61H8.82a1.202 1.202 0 110-2.407h18.056a1.203 1.203 0 110 2.407z" fill="#DD7D5C"/><path d="M23.266 30.08a1.202 1.202 0 01-1.203-1.204v-3.608a1.203 1.203 0 112.406 0v3.608c0 .664-.538 1.203-1.203 1.203zm-7.238 0a1.203 1.203 0 01-1.203-1.203V3.007a1.203 1.203 0 012.406 0v25.87c0 .665-.538 1.204-1.203 1.204zm3.71 0a1.203 1.203 0 01-1.203-1.203V3.007a1.203 1.203 0 012.406 0v25.87c0 .665-.538 1.204-1.203 1.204zm-7.3 0a1.202 1.202 0 01-1.204-1.203V25.26a1.202 1.202 0 112.407 0v3.618c0 .665-.538 1.203-1.204 1.203zm14.437 33.084a1.202 1.202 0 01-1.203-1.203c0-4.312-3.509-7.82-7.82-7.82a1.202 1.202 0 01-1.204-1.203c0-.666.538-1.204 1.204-1.204 5.639 0 10.226 4.588 10.226 10.227 0 .666-.537 1.203-1.203 1.203zM55.153 77c-8.293 0-15.039-6.746-15.039-15.039 0-8.292 6.746-15.038 15.04-15.038 8.292 0 15.038 6.746 15.038 15.038C70.192 70.254 63.446 77 55.153 77zm0-27.67c-6.966 0-12.633 5.666-12.633 12.631 0 6.966 5.667 12.633 12.633 12.633 6.966 0 12.633-5.667 12.633-12.633 0-6.965-5.667-12.632-12.633-12.632z" fill="#DD7D5C"/><path d="M53.348 49.447a1.202 1.202 0 01-1.203-1.203V32.467a1.203 1.203 0 012.406 0v15.776c0 .665-.537 1.204-1.203 1.204zm3.61 0a1.202 1.202 0 01-1.203-1.203V32.467a1.203 1.203 0 012.406 0v15.776c0 .665-.538 1.204-1.203 1.204zm0-45.237a1.202 1.202 0 01-1.203-1.202.603.603 0 00-1.204 0 1.203 1.203 0 11-2.406 0A3.011 3.011 0 0155.153 0a3.011 3.011 0 013.008 3.008c0 .664-.538 1.203-1.203 1.203zM46.12 33.67c-4.638 0-8.412-3.774-8.412-8.412 0-4.638 3.774-8.412 8.412-8.412 4.638 0 8.412 3.774 8.412 8.412a1.203 1.203 0 11-2.406 0 6.012 6.012 0 00-6.006-6.006 6.013 6.013 0 00-6.006 6.006 6.012 6.012 0 006.006 6.006 1.203 1.203 0 010 2.406z" fill="#DD7D5C"/><path d="M46.12 30.08a4.827 4.827 0 01-4.822-4.821 4.827 4.827 0 014.822-4.822 4.826 4.826 0 014.82 4.822 1.203 1.203 0 11-2.406 0 2.417 2.417 0 00-2.414-2.416 2.419 2.419 0 00-2.416 2.416 2.417 2.417 0 002.416 2.414 1.203 1.203 0 010 2.406zm18.057 3.61a1.203 1.203 0 110-2.407 6.022 6.022 0 006.015-6.015 6.022 6.022 0 00-6.015-6.016 6.023 6.023 0 00-6.016 6.016 1.202 1.202 0 11-2.406 0c0-4.644 3.779-8.422 8.422-8.422 4.642 0 8.421 3.778 8.421 8.422s-3.779 8.422-8.421 8.422z" fill="#DD7D5C"/><path d="M64.177 30.08a1.203 1.203 0 110-2.406 2.409 2.409 0 002.406-2.406 2.409 2.409 0 00-2.406-2.406 2.409 2.409 0 00-2.407 2.406 1.202 1.202 0 11-2.406 0 4.817 4.817 0 014.813-4.813 4.817 4.817 0 014.812 4.813 4.817 4.817 0 01-4.813 4.812z" fill="#DD7D5C"/><path d="M64.177 30.08H46.12a1.202 1.202 0 110-2.406h18.057a1.203 1.203 0 110 2.406zm0 3.61H46.12a1.202 1.202 0 110-2.407h18.057a1.203 1.203 0 110 2.407z" fill="#DD7D5C"/><path d="M60.567 30.08a1.203 1.203 0 01-1.203-1.204v-3.608a1.203 1.203 0 012.406 0v3.608c0 .664-.537 1.203-1.203 1.203zm-7.237 0a1.203 1.203 0 01-1.204-1.203V3.007a1.203 1.203 0 012.406 0v25.87c0 .665-.537 1.204-1.203 1.204zm3.71 0a1.203 1.203 0 01-1.204-1.203V3.007a1.203 1.203 0 012.407 0v25.87c0 .665-.538 1.204-1.203 1.204zm-7.303 0a1.203 1.203 0 01-1.203-1.203V25.26a1.203 1.203 0 112.406 0v3.618c0 .665-.538 1.203-1.203 1.203zm14.44 33.084a1.202 1.202 0 01-1.204-1.203c0-4.312-3.508-7.82-7.82-7.82a1.202 1.202 0 110-2.407c5.64 0 10.227 4.588 10.227 10.227 0 .666-.538 1.203-1.203 1.203z" fill="#DD7D5C"/></svg>