<svg width="79" height="79" viewBox="0 0 79 79" fill="none" xmlns="http://www.w3.org/2000/svg">
<path d="M78.1703 53.6476L51.6972 7.79439C51.0795 6.7245 50.0821 5.95887 48.8891 5.63824L28.6862 0.21299C28.0051 0.0301471 27.3109 -0.033732 26.6277 0.0165689C26.568 0.00962556 26.5075 0.00499663 26.4459 0.00499663H5.64771C3.14192 0.00499663 0.969875 1.61617 0.242826 4.01411C-0.227782 5.56665 -0.00790767 7.24787 0.846437 8.62698C1.70078 10.0061 3.10813 10.9518 4.70758 11.2218L12.2615 12.4969L8.14486 16.6089C7.26938 17.4835 6.78735 18.6466 6.78735 19.8839V72.8283C6.78735 76.2315 9.55607 79.0002 12.9593 79.0002H41.6584C43.4043 79.0002 45.0491 78.2539 46.2053 76.9946C46.2614 77.0113 46.3171 77.0291 46.3741 77.0443C46.9058 77.1867 47.4454 77.2573 47.9814 77.2573C49.0508 77.2573 50.1064 76.9767 51.0573 76.4278L75.9115 62.0782C77.3393 61.254 78.3605 59.923 78.7872 58.3307C79.2137 56.7383 78.9946 55.0753 78.1703 53.6476ZM5.22139 8.17906C4.48523 8.05469 3.86311 7.6367 3.46996 7.00192C3.07665 6.36714 2.97945 5.62405 3.19608 4.9095C3.52581 3.8217 4.51116 3.09095 5.64787 3.09095H21.6781L14.9417 9.81986L5.22139 8.17906ZM19.8651 9.26361L19.5087 10.5909L18.6769 10.4505L19.8651 9.26361ZM41.6586 75.9144H17.2794V62.3386C17.2794 61.4864 16.5886 60.7956 15.7365 60.7956C14.8843 60.7956 14.1935 61.4864 14.1935 62.3386V75.9146H12.9591C11.2575 75.9146 9.87315 74.5302 9.87315 72.8286V19.8839C9.87315 19.4715 10.0339 19.0837 10.3257 18.7923L15.9969 13.1274L18.7048 13.5846L15.6923 24.8023C15.3714 25.9973 15.5352 27.2458 16.1541 28.3173L42.6265 74.1687C42.8686 74.5882 43.1556 74.9715 43.4791 75.3159C42.9581 75.6972 42.323 75.9144 41.6586 75.9144ZM75.8062 57.532C75.5929 58.3282 75.0822 58.9937 74.3684 59.4058L49.5142 73.7553C48.8002 74.1674 47.9686 74.2767 47.1726 74.0636C46.3764 73.8502 45.7109 73.3396 45.2988 72.6257L18.8264 26.7747C18.6203 26.4175 18.5655 26.0013 18.6724 25.6031L21.7613 14.1008L26.3827 14.881C26.4899 15.4628 26.6971 16.0283 27.0017 16.5559C27.7024 17.7694 28.8337 18.6375 30.1872 19.0001C30.6391 19.1212 31.0978 19.1811 31.5535 19.1811C32.4626 19.1811 33.3597 18.9427 34.1681 18.4759C35.3816 17.7753 36.2497 16.644 36.6123 15.2905C36.975 13.937 36.789 12.5231 36.0883 11.3096C35.3876 10.096 34.2563 9.22797 32.9028 8.86537C31.5493 8.50262 30.1355 8.68886 28.9219 9.38937C27.9443 9.95379 27.1913 10.7981 26.7457 11.8125L22.5654 11.1069L24.1051 5.37331C24.3189 4.57729 24.8298 3.91212 25.5439 3.5003C26.0191 3.22626 26.5462 3.08632 27.0804 3.08632C27.349 3.08632 27.6194 3.12165 27.8857 3.19324L39.5871 6.33567C39.5978 6.35619 39.607 6.37717 39.6188 6.39739L47.1034 19.361C47.3892 19.8561 47.9078 20.1326 48.441 20.1326C48.7027 20.1326 48.9681 20.066 49.2111 19.9257C49.9491 19.4997 50.202 18.556 49.7759 17.818L43.7996 7.46698L48.0885 8.61865C48.4862 8.72543 48.8186 8.98079 49.0246 9.33737L75.4979 55.1904C75.9101 55.9043 76.0194 56.7359 75.8062 57.532ZM30.2924 12.4113L30.0548 12.3712C30.1779 12.2541 30.314 12.1491 30.4649 12.062C30.7977 11.8697 31.1671 11.7717 31.5415 11.7717C31.7291 11.7717 31.9179 11.7964 32.104 11.8462C32.6613 11.9956 33.1272 12.353 33.4157 12.8527C33.7042 13.3525 33.7808 13.9345 33.6314 14.492C33.4821 15.0493 33.1247 15.5151 32.6249 15.8037C32.1253 16.0924 31.5431 16.1689 30.9857 16.0194C30.6209 15.9217 30.2967 15.7335 30.0344 15.4759C30.0355 15.4758 30.0364 15.4759 30.0375 15.4759C30.7768 15.4759 31.4299 14.9428 31.557 14.1896C31.6988 13.3493 31.1327 12.5531 30.2924 12.4113Z" fill="#DD7D5C"/>
<path d="M16.8272 53.3644C16.5402 53.0775 16.1421 52.9124 15.7363 52.9124C15.3305 52.9124 14.9324 53.0775 14.6455 53.3644C14.3585 53.6514 14.1934 54.0495 14.1934 54.4569C14.1934 54.8611 14.3585 55.2592 14.6455 55.5478C14.9324 55.8347 15.3305 55.9983 15.7363 55.9983C16.1421 55.9983 16.5402 55.8347 16.8272 55.5478C17.1142 55.2592 17.2793 54.8627 17.2793 54.4569C17.2792 54.0495 17.1141 53.6514 16.8272 53.3644Z" fill="#DD7D5C"/>
<path d="M53.4727 24.3256C53.1857 24.0386 52.7876 23.8735 52.3818 23.8735C51.9745 23.8735 51.578 24.0386 51.2894 24.3256C51.0024 24.6126 50.8389 25.0107 50.8389 25.4165C50.8389 25.8239 51.0024 26.2204 51.2894 26.5074C51.578 26.7959 51.976 26.9595 52.3818 26.9595C52.7876 26.9595 53.1842 26.7959 53.4727 26.5074C53.7597 26.2204 53.9248 25.8223 53.9248 25.4165C53.9248 25.0107 53.7597 24.6142 53.4727 24.3256Z" fill="#DD7D5C"/>
</svg>
