<svg width="73" height="77" viewBox="0 0 73 77" fill="none" xmlns="http://www.w3.org/2000/svg">
<path d="M17.8516 77C9.55834 77 2.8125 70.2542 2.8125 61.961C2.8125 53.6689 9.55834 46.9231 17.8516 46.9231C26.1448 46.9231 32.8906 53.6689 32.8906 61.961C32.8906 70.2542 26.1448 77 17.8516 77ZM17.8516 49.3293C10.8854 49.3293 5.21875 54.996 5.21875 61.961C5.21875 68.9271 10.8854 74.5938 17.8516 74.5938C24.8177 74.5938 30.4844 68.9271 30.4844 61.961C30.4844 54.996 24.8177 49.3293 17.8516 49.3293Z" fill="#DD7D5C"/>
<path d="M16.0493 49.4473C15.3843 49.4473 14.8462 48.9092 14.8462 48.2442V32.4673C14.8462 31.8035 15.3843 31.2642 16.0493 31.2642C16.7149 31.2642 17.2524 31.8035 17.2524 32.4673V48.243C17.2524 48.908 16.7149 49.4473 16.0493 49.4473Z" fill="#DD7D5C"/>
<path d="M19.6562 49.4473C18.9907 49.4473 18.4531 48.9092 18.4531 48.2442V32.4673C18.4531 31.8035 18.9907 31.2642 19.6562 31.2642C20.3218 31.2642 20.8594 31.8035 20.8594 32.4673V48.243C20.8594 48.908 20.3218 49.4473 19.6562 49.4473Z" fill="#DD7D5C"/>
<path d="M19.6563 4.21094C18.9907 4.21094 18.4532 3.67165 18.4532 3.00781C18.4532 2.6759 18.1824 2.40625 17.8517 2.40625C17.5221 2.40625 17.2524 2.6759 17.2524 3.00781C17.2524 3.67165 16.7149 4.21094 16.0493 4.21094C15.3843 4.21094 14.8462 3.67165 14.8462 3.00781C14.8462 1.34999 16.195 0 17.8517 0C19.5107 0 20.8595 1.34999 20.8595 3.00781C20.8595 3.67165 20.3219 4.21094 19.6563 4.21094Z" fill="#DD7D5C"/>
<path d="M8.81873 33.6703C4.1807 33.6703 0.40625 29.8964 0.40625 25.2584C0.40625 20.6204 4.1807 16.8459 8.81873 16.8459C13.4567 16.8459 17.2306 20.6204 17.2306 25.2584C17.2306 25.9223 16.6931 26.4615 16.0275 26.4615C15.3625 26.4615 14.8244 25.9223 14.8244 25.2584C14.8244 21.9463 12.1308 19.2522 8.81873 19.2522C5.50602 19.2522 2.8125 21.9463 2.8125 25.2584C2.8125 28.5705 5.50602 31.2641 8.81873 31.2641C9.48373 31.2641 10.0219 31.8034 10.0219 32.4672C10.0219 33.1316 9.48373 33.6703 8.81873 33.6703Z" fill="#DD7D5C"/>
<path d="M8.81867 30.0793C6.16099 30.0793 3.99854 27.9174 3.99854 25.2586C3.99854 22.5997 6.16099 20.4373 8.81867 20.4373C11.4775 20.4373 13.6406 22.5997 13.6406 25.2586C13.6406 25.9224 13.103 26.4617 12.4374 26.4617C11.7719 26.4617 11.2343 25.9224 11.2343 25.2586C11.2343 23.928 10.1516 22.8435 8.81867 22.8435C7.48807 22.8435 6.40479 23.9268 6.40479 25.2586C6.40479 26.5903 7.48631 27.673 8.81867 27.673C9.48368 27.673 10.0218 28.2123 10.0218 28.8762C10.0218 29.5406 9.48368 30.0793 8.81867 30.0793Z" fill="#DD7D5C"/>
<path d="M26.875 33.6897C26.2094 33.6897 25.6719 33.151 25.6719 32.4866C25.6719 31.8227 26.2094 31.2834 26.875 31.2834C30.1918 31.2834 32.8906 28.5846 32.8906 25.2678C32.8906 21.951 30.1918 19.2522 26.875 19.2522C23.5582 19.2522 20.8594 21.951 20.8594 25.2678C20.8594 25.9322 20.3218 26.4709 19.6562 26.4709C18.9907 26.4709 18.4531 25.9322 18.4531 25.2678C18.4531 20.6239 22.2323 16.8459 26.875 16.8459C31.5177 16.8459 35.2969 20.6239 35.2969 25.2678C35.2969 29.9117 31.5177 33.6897 26.875 33.6897Z" fill="#DD7D5C"/>
<path d="M26.875 30.0803C26.2094 30.0803 25.6719 29.5416 25.6719 28.8772C25.6719 28.2134 26.2094 27.6741 26.875 27.6741C28.2021 27.6741 29.2812 26.5949 29.2812 25.2678C29.2812 23.9407 28.2021 22.8616 26.875 22.8616C25.5479 22.8616 24.4688 23.9407 24.4688 25.2678C24.4688 25.9322 23.9312 26.4709 23.2656 26.4709C22.6 26.4709 22.0625 25.9322 22.0625 25.2678C22.0625 22.6137 24.2208 20.4553 26.875 20.4553C29.5292 20.4553 31.6875 22.6137 31.6875 25.2678C31.6875 27.922 29.5292 30.0803 26.875 30.0803Z" fill="#DD7D5C"/>
<path d="M26.8751 30.0803H8.81885C8.15325 30.0803 7.61572 29.5416 7.61572 28.8772C7.61572 28.2134 8.15325 27.6741 8.81885 27.6741H26.8751C27.5407 27.6741 28.0782 28.2134 28.0782 28.8772C28.0782 29.5416 27.5407 30.0803 26.8751 30.0803Z" fill="#DD7D5C"/>
<path d="M26.8751 33.6897H8.81885C8.15325 33.6897 7.61572 33.151 7.61572 32.4866C7.61572 31.8227 8.15325 31.2834 8.81885 31.2834H26.8751C27.5407 31.2834 28.0782 31.8227 28.0782 32.4866C28.0782 33.151 27.5407 33.6897 26.8751 33.6897Z" fill="#DD7D5C"/>
<path d="M23.2656 30.0791C22.6 30.0791 22.0625 29.5404 22.0625 28.876V25.2678C22.0625 24.604 22.6 24.0647 23.2656 24.0647C23.9312 24.0647 24.4688 24.604 24.4688 25.2678V28.876C24.4688 29.5404 23.9312 30.0791 23.2656 30.0791Z" fill="#DD7D5C"/>
<path d="M16.0276 30.0805C15.3626 30.0805 14.8245 29.5418 14.8245 28.8773V3.00781C14.8245 2.34398 15.3626 1.80469 16.0276 1.80469C16.6932 1.80469 17.2307 2.34398 17.2307 3.00781V28.8773C17.2307 29.5418 16.6932 30.0805 16.0276 30.0805Z" fill="#DD7D5C"/>
<path d="M19.7378 30.0805C19.0728 30.0805 18.5347 29.5418 18.5347 28.8773V3.00781C18.5347 2.34398 19.0728 1.80469 19.7378 1.80469C20.4034 1.80469 20.9409 2.34398 20.9409 3.00781V28.8773C20.9409 29.5418 20.4034 30.0805 19.7378 30.0805Z" fill="#DD7D5C"/>
<path d="M12.4375 30.0804C11.7719 30.0804 11.2344 29.5417 11.2344 28.8773V25.2585C11.2344 24.5941 11.7719 24.0554 12.4375 24.0554C13.1031 24.0554 13.6406 24.5941 13.6406 25.2585V28.8773C13.6406 29.5417 13.1031 30.0804 12.4375 30.0804Z" fill="#DD7D5C"/>
<path d="M26.875 63.1641C26.2094 63.1641 25.6719 62.6265 25.6719 61.9609C25.6719 57.649 22.1635 54.1406 17.8516 54.1406C17.186 54.1406 16.6484 53.6031 16.6484 52.9375C16.6484 52.2719 17.186 51.7344 17.8516 51.7344C23.4906 51.7344 28.0781 56.3219 28.0781 61.9609C28.0781 62.6265 27.5406 63.1641 26.875 63.1641Z" fill="#DD7D5C"/>
<path d="M55.1531 77C46.8599 77 40.114 70.2542 40.114 61.961C40.114 53.6689 46.8599 46.9231 55.1531 46.9231C63.4463 46.9231 70.1921 53.6689 70.1921 61.961C70.1921 70.2542 63.4463 77 55.1531 77ZM55.1531 49.3293C48.1869 49.3293 42.5203 54.996 42.5203 61.961C42.5203 68.9271 48.1869 74.5938 55.1531 74.5938C62.1192 74.5938 67.7859 68.9271 67.7859 61.961C67.7859 54.996 62.1192 49.3293 55.1531 49.3293Z" fill="#DD7D5C"/>
<path d="M53.3484 49.4473C52.6834 49.4473 52.1453 48.9092 52.1453 48.2442V32.4673C52.1453 31.8035 52.6834 31.2642 53.3484 31.2642C54.014 31.2642 54.5515 31.8035 54.5515 32.4673V48.243C54.5515 48.908 54.014 49.4473 53.3484 49.4473Z" fill="#DD7D5C"/>
<path d="M56.9578 49.4473C56.2928 49.4473 55.7546 48.9092 55.7546 48.2442V32.4673C55.7546 31.8035 56.2928 31.2642 56.9578 31.2642C57.6234 31.2642 58.1609 31.8035 58.1609 32.4673V48.243C58.1609 48.908 57.6234 49.4473 56.9578 49.4473Z" fill="#DD7D5C"/>
<path d="M56.9578 4.21094C56.2928 4.21094 55.7546 3.67165 55.7546 3.00781C55.7546 2.6759 55.4838 2.40625 55.1531 2.40625C54.8223 2.40625 54.5515 2.6759 54.5515 3.00781C54.5515 3.67165 54.014 4.21094 53.3484 4.21094C52.6834 4.21094 52.1453 3.67165 52.1453 3.00781C52.1453 1.34999 53.4941 0 55.1531 0C56.8121 0 58.1609 1.34999 58.1609 3.00781C58.1609 3.67165 57.6234 4.21094 56.9578 4.21094Z" fill="#DD7D5C"/>
<path d="M46.1202 33.6703C41.4822 33.6703 37.7078 29.8964 37.7078 25.2584C37.7078 20.6204 41.4822 16.8459 46.1202 16.8459C50.7583 16.8459 54.5321 20.6204 54.5321 25.2584C54.5321 25.9223 53.9946 26.4615 53.329 26.4615C52.664 26.4615 52.1259 25.9223 52.1259 25.2584C52.1259 21.9463 49.4324 19.2522 46.1202 19.2522C42.8081 19.2522 40.114 21.9463 40.114 25.2584C40.114 28.5705 42.8081 31.2641 46.1202 31.2641C46.7852 31.2641 47.3234 31.8034 47.3234 32.4672C47.3234 33.1316 46.7852 33.6703 46.1202 33.6703Z" fill="#DD7D5C"/>
<path d="M46.1203 30.0793C43.4615 30.0793 41.2979 27.9174 41.2979 25.2586C41.2979 22.5997 43.4615 20.4373 46.1203 20.4373C48.778 20.4373 50.9399 22.5997 50.9399 25.2586C50.9399 25.9224 50.4024 26.4617 49.7368 26.4617C49.0718 26.4617 48.5336 25.9224 48.5336 25.2586C48.5336 23.928 47.4521 22.8435 46.1203 22.8435C44.7886 22.8435 43.7041 23.9268 43.7041 25.2586C43.7041 26.5903 44.7874 27.673 46.1203 27.673C46.7853 27.673 47.3235 28.2123 47.3235 28.8762C47.3235 29.5406 46.7853 30.0793 46.1203 30.0793Z" fill="#DD7D5C"/>
<path d="M64.1765 33.6897C63.5115 33.6897 62.9734 33.151 62.9734 32.4866C62.9734 31.8227 63.5115 31.2834 64.1765 31.2834C67.4939 31.2834 70.1921 28.5846 70.1921 25.2678C70.1921 21.951 67.4939 19.2522 64.1765 19.2522C60.8597 19.2522 58.1609 21.951 58.1609 25.2678C58.1609 25.9322 57.6234 26.4709 56.9578 26.4709C56.2928 26.4709 55.7546 25.9322 55.7546 25.2678C55.7546 20.6239 59.5338 16.8459 64.1765 16.8459C68.8192 16.8459 72.5984 20.6239 72.5984 25.2678C72.5984 29.9117 68.8192 33.6897 64.1765 33.6897Z" fill="#DD7D5C"/>
<path d="M64.1765 30.0803C63.5115 30.0803 62.9734 29.5416 62.9734 28.8772C62.9734 28.2134 63.5115 27.6741 64.1765 27.6741C65.5036 27.6741 66.5828 26.5949 66.5828 25.2678C66.5828 23.9407 65.5036 22.8616 64.1765 22.8616C62.8494 22.8616 61.7703 23.9407 61.7703 25.2678C61.7703 25.9322 61.2327 26.4709 60.5671 26.4709C59.9021 26.4709 59.364 25.9322 59.364 25.2678C59.364 22.6137 61.5224 20.4553 64.1765 20.4553C66.8307 20.4553 68.989 22.6137 68.989 25.2678C68.989 27.922 66.8307 30.0803 64.1765 30.0803Z" fill="#DD7D5C"/>
<path d="M64.1766 30.0803H46.1204C45.4548 30.0803 44.9172 29.5416 44.9172 28.8772C44.9172 28.2134 45.4548 27.6741 46.1204 27.6741H64.1766C64.8422 27.6741 65.3798 28.2134 65.3798 28.8772C65.3798 29.5416 64.8422 30.0803 64.1766 30.0803Z" fill="#DD7D5C"/>
<path d="M64.1766 33.6897H46.1204C45.4548 33.6897 44.9172 33.151 44.9172 32.4866C44.9172 31.8227 45.4548 31.2834 46.1204 31.2834H64.1766C64.8422 31.2834 65.3798 31.8227 65.3798 32.4866C65.3798 33.151 64.8422 33.6897 64.1766 33.6897Z" fill="#DD7D5C"/>
<path d="M60.5671 30.0791C59.9021 30.0791 59.364 29.5404 59.364 28.876V25.2678C59.364 24.604 59.9021 24.0647 60.5671 24.0647C61.2327 24.0647 61.7703 24.604 61.7703 25.2678V28.876C61.7703 29.5404 61.2327 30.0791 60.5671 30.0791Z" fill="#DD7D5C"/>
<path d="M53.3291 30.0805C52.6641 30.0805 52.126 29.5418 52.126 28.8773V3.00781C52.126 2.34398 52.6641 1.80469 53.3291 1.80469C53.9947 1.80469 54.5322 2.34398 54.5322 3.00781V28.8773C54.5322 29.5418 53.9947 30.0805 53.3291 30.0805Z" fill="#DD7D5C"/>
<path d="M57.0396 30.0805C56.3745 30.0805 55.8364 29.5418 55.8364 28.8773V3.00781C55.8364 2.34398 56.3745 1.80469 57.0396 1.80469C57.7051 1.80469 58.2427 2.34398 58.2427 3.00781V28.8773C58.2427 29.5418 57.7051 30.0805 57.0396 30.0805Z" fill="#DD7D5C"/>
<path d="M49.7368 30.0804C49.0718 30.0804 48.5337 29.5417 48.5337 28.8773V25.2585C48.5337 24.5941 49.0718 24.0554 49.7368 24.0554C50.4024 24.0554 50.9399 24.5941 50.9399 25.2585V28.8773C50.9399 29.5417 50.4024 30.0804 49.7368 30.0804Z" fill="#DD7D5C"/>
<path d="M64.1765 63.1641C63.5115 63.1641 62.9734 62.6265 62.9734 61.9609C62.9734 57.649 59.4651 54.1406 55.1531 54.1406C54.4881 54.1406 53.95 53.6031 53.95 52.9375C53.95 52.2719 54.4881 51.7344 55.1531 51.7344C60.7921 51.7344 65.3796 56.3219 65.3796 61.9609C65.3796 62.6265 64.8421 63.1641 64.1765 63.1641Z" fill="#DD7D5C"/>
</svg>
